<svg width="120" height="120" viewBox="0 0 120 120" fill="none" xmlns="http://www.w3.org/2000/svg">
<path d="M82.5 30H37C36.4477 30 36 30.4477 36 31V90L43 86.5L49 90L54.5 86.5L60 90L65.5 86.5L71 90L76.5 86.5L83.5 90.5V31C83.5 30.4477 83.0523 30 82.5 30Z" fill="white"/>
<path d="M83.5 90.5L82.7558 91.8024C83.22 92.0677 83.7904 92.0657 84.2529 91.7974C84.7154 91.529 85 91.0347 85 90.5H83.5ZM76.5 86.5L77.2442 85.1976L76.4583 84.7486L75.6947 85.2345L76.5 86.5ZM71 90L70.1947 91.2655C70.686 91.5782 71.314 91.5782 71.8053 91.2655L71 90ZM65.5 86.5L66.3053 85.2345L65.5 84.722L64.6947 85.2345L65.5 86.5ZM60 90L59.1947 91.2655C59.686 91.5782 60.314 91.5782 60.8053 91.2655L60 90ZM54.5 86.5L55.3053 85.2345L54.5 84.722L53.6947 85.2345L54.5 86.5ZM49 90L48.2442 91.2957C48.7292 91.5786 49.3316 91.5669 49.8053 91.2655L49 90ZM43 86.5L43.7558 85.2043L43.0549 84.7955L42.3292 85.1584L43 86.5ZM36 90H34.5C34.5 90.5199 34.7692 91.0027 35.2114 91.276C35.6536 91.5493 36.2058 91.5741 36.6708 91.3416L36 90ZM37 31.5H82.5V28.5H37V31.5ZM82 31V90.5H85V31H82ZM84.2442 89.1976L77.2442 85.1976L75.7558 87.8024L82.7558 91.8024L84.2442 89.1976ZM75.6947 85.2345L70.1947 88.7345L71.8053 91.2655L77.3053 87.7655L75.6947 85.2345ZM71.8053 88.7345L66.3053 85.2345L64.6947 87.7655L70.1947 91.2655L71.8053 88.7345ZM64.6947 85.2345L59.1947 88.7345L60.8053 91.2655L66.3053 87.7655L64.6947 85.2345ZM60.8053 88.7345L55.3053 85.2345L53.6947 87.7655L59.1947 91.2655L60.8053 88.7345ZM53.6947 85.2345L48.1947 88.7345L49.8053 91.2655L55.3053 87.7655L53.6947 85.2345ZM49.7558 88.7043L43.7558 85.2043L42.2442 87.7957L48.2442 91.2957L49.7558 88.7043ZM42.3292 85.1584L35.3292 88.6584L36.6708 91.3416L43.6708 87.8416L42.3292 85.1584ZM37.5 90V31H34.5V90H37.5ZM82.5 31.5C82.2239 31.5 82 31.2761 82 31H85C85 29.6193 83.8807 28.5 82.5 28.5V31.5ZM37 28.5C35.6193 28.5 34.5 29.6193 34.5 31H37.5C37.5 31.2761 37.2761 31.5 37 31.5V28.5Z" fill="#008481"/>
<g style="mix-blend-mode:multiply" opacity="0.15">
<path d="M43.2549 83.0764L48.8421 86.2742L54.4219 83.0764L60.0017 86.2742L65.5815 83.0764L71.1612 86.2742L76.7336 83.0764L80.8254 85.4259V43.3887L39.1631 85.4259L43.2549 83.0764Z" fill="#00C1BF"/>
</g>
<path d="M44.3184 59.4753H75.8106" stroke="#57B520" stroke-width="2" stroke-miterlimit="10" stroke-linecap="round"/>
<path d="M44.3184 49.1837H75.8106" stroke="#00C1BF" stroke-width="2" stroke-miterlimit="10" stroke-linecap="round"/>
<path d="M60.0684 70.5402H75.8108" stroke="#00C1BF" stroke-width="2" stroke-miterlimit="10" stroke-linecap="round"/>
</svg>
