<svg width="120" height="120" viewBox="0 0 120 120" fill="none" xmlns="http://www.w3.org/2000/svg">
<path d="M27.8169 78.9941C27.5939 79.0124 27.3694 78.986 27.1567 78.9166C26.9439 78.8472 26.7472 78.7361 26.578 78.5898C26.4088 78.4435 26.2705 78.2649 26.1713 78.0646C26.072 77.8643 26.0138 77.6462 26 77.4231V38.5766C26.0138 38.3535 26.072 38.1354 26.1713 37.9351C26.2705 37.7348 26.4088 37.5562 26.578 37.4099C26.7472 37.2636 26.9439 37.1525 27.1567 37.0831C27.3694 37.0137 27.5939 36.9873 27.8169 37.0056H92.1831C92.4061 36.9873 92.6306 37.0137 92.8433 37.0831C93.0561 37.1525 93.2528 37.2636 93.422 37.4099C93.5912 37.5562 93.7295 37.7348 93.8287 37.9351C93.928 38.1354 93.9862 38.3535 94 38.5766V77.2214C93.9467 77.7357 93.6944 78.2088 93.2968 78.54C92.8993 78.8711 92.388 79.034 91.8718 78.9941H27.8169Z" fill="white" stroke="#008481" stroke-width="3" stroke-linecap="round" stroke-linejoin="round"/>
<g style="mix-blend-mode:multiply" opacity="0.15">
<path d="M90 40V75H55L90 40Z" fill="#00C1BF"/>
</g>
<path d="M66 63C68.2429 63 68.2429 67 70.4939 67C72.745 67 72.745 63 74.996 63C77.247 63 77.247 67 79.498 67C81.749 67 81.749 63 84 63" stroke="#57B520" stroke-width="2" stroke-miterlimit="10" stroke-linecap="round"/>
<path d="M35 49H48" stroke="#00C1BF" stroke-width="2" stroke-linecap="round" stroke-linejoin="round"/>
<path d="M35 56H57" stroke="#00C1BF" stroke-width="2" stroke-linecap="round" stroke-linejoin="round"/>
<path d="M85 52H64V57H85V52Z" fill="#00C1BF"/>
<path d="M85.0596 87.9207L74 90.3266L76.4059 79.2444L98.2093 57.441C98.349 57.3012 98.5148 57.1903 98.6973 57.1146C98.8799 57.0389 99.0756 57 99.2732 57C99.4708 57 99.6664 57.0389 99.849 57.1146C100.032 57.1903 100.197 57.3012 100.337 57.441L106.863 63.9745C107.143 64.2562 107.3 64.6374 107.3 65.0346C107.3 65.4319 107.143 65.813 106.863 66.0947L85.0596 87.9207Z" fill="white" stroke="#11827F" stroke-width="3" stroke-linecap="round" stroke-linejoin="round"/>
<path d="M81 87.5L75.5 88.5L77 83L81 87.5Z" fill="#57B320"/>
<g style="mix-blend-mode:multiply" opacity="0.15">
<path d="M104.3 65.13L101.748 62.5781L81.5673 82.7589L84.1191 85.3107L104.3 65.13Z" fill="#18BEBD"/>
</g>
<path d="M91.6982 63.96L100.359 72.6212" stroke="#18BEBD" stroke-width="4" stroke-linecap="round" stroke-linejoin="round"/>
</svg>
