<svg
   aria-hidden="true"
   class="qbo-logo-wordmark"
   width="126"
   height="30"
   fill="none"
   xmlns="http://www.w3.org/2000/svg"
>
   <path
      d="M125.046 22.4706C125.046 22.1522 124.769 22.0363 124.486 22.0363H123.956V23.5187H124.227V22.8992H124.421L124.775 23.5187H125.105L124.698 22.8701C124.911 22.8237 125.046 22.6848 125.046 22.4706ZM124.227 22.6848V22.262H124.474C124.616 22.262 124.775 22.3027 124.775 22.4647C124.775 22.6443 124.598 22.6848 124.445 22.6848H124.227ZM124.48 21.4688C123.737 21.4688 123.136 22.0537 123.136 22.7833C123.136 23.5129 123.737 24.0862 124.48 24.0862C125.223 24.0862 125.825 23.5129 125.825 22.7833C125.825 22.0537 125.223 21.4688 124.48 21.4688ZM124.48 23.8951C123.855 23.8951 123.348 23.3913 123.348 22.7833C123.348 22.1694 123.855 21.6715 124.48 21.6715C125.105 21.6715 125.612 22.1694 125.612 22.7833C125.612 23.3913 125.105 23.8951 124.48 23.8951Z"
      fill="white"
   ></path>
   <path
      d="M39.9986 21.7228C38.0668 21.7228 37.0928 20.0276 37.0928 18.3885C37.0928 16.7495 38.1496 15.1263 39.9059 15.1263C40.7284 15.1263 41.7682 15.5314 42.1763 16.1011L44.2214 14.0999C43.2315 13.0755 41.6536 12.4639 39.9059 12.4639C36.3491 12.4639 33.7677 14.9708 33.7677 18.4245C33.7677 21.9342 36.3203 24.3853 39.9753 24.3853C41.7145 24.3853 43.3217 23.8853 44.2745 22.8791L42.2855 20.7826C41.8259 21.3321 40.8627 21.7228 39.9986 21.7228ZM28.5611 24.0675H31.7341V12.7816H28.5611V24.0675ZM22.7913 18.9692C22.7913 20.2954 21.9111 21.7228 20.2706 21.7228C19.0059 21.7228 18.3306 20.837 18.3306 19.0147V12.7816H15.1576V19.7861C15.1576 22.1167 16.3417 24.3853 19.5082 24.3853C21.0015 24.3853 22.2523 23.2308 22.8825 22.3787H22.93V24.0675H25.9643V12.7816H22.7913V18.9692ZM9.4332 14.2145H9.36291C8.91464 13.7276 7.7002 12.4639 5.72834 12.4639C2.49309 12.4639 0 14.9517 0 18.3793C0 21.8594 2.30056 24.3853 5.5762 24.3853C7.06348 24.3853 8.46048 23.6112 9.27036 22.7109H9.31747V29.625H12.4905V12.7816H9.4332V14.2145ZM6.35227 21.7228C4.39028 21.7228 3.27476 20.0408 3.27476 18.3793C3.27476 16.7907 4.29903 15.0809 6.35227 15.0809C8.24097 15.0809 9.40985 16.8165 9.40985 18.4245C9.40985 20.0458 8.26628 21.7228 6.35227 21.7228ZM78.6285 12.4639C75.0179 12.4639 72.3976 14.9517 72.3976 18.3793C72.3976 21.9261 75.0762 24.4156 78.6285 24.4156C82.1803 24.4156 84.859 21.9023 84.859 18.3793C84.859 14.9517 82.2386 12.4639 78.6285 12.4639ZM78.6285 21.7228C76.5593 21.7228 75.6166 19.9896 75.6166 18.3793C75.6166 16.7907 76.5593 15.0809 78.6285 15.0809C80.6976 15.0809 81.64 16.7907 81.64 18.3793C81.64 19.9896 80.6976 21.7228 78.6285 21.7228ZM118.298 17.1212C116.666 16.7385 116.09 16.5324 116.09 15.8829C116.09 14.9873 117.245 14.7908 117.768 14.7908C118.753 14.7908 119.865 15.3683 120.284 15.9165L122.155 14.1534C121.289 13.086 119.588 12.4639 117.791 12.4639C115.495 12.4639 113.084 13.5983 113.084 16.1325C113.084 18.3086 114.82 18.9652 116.519 19.3651C118.31 19.7746 118.949 20.074 118.949 20.7826C118.949 21.8271 117.743 21.9976 117.327 21.9976C116.289 21.9976 115.086 21.4139 114.437 20.6575L112.511 22.5753C113.564 23.7215 115.365 24.4112 117.212 24.4112C120.314 24.4112 122.155 22.9588 122.155 20.5622C122.155 18.2692 119.902 17.4984 118.298 17.1212ZM112.3 12.7816H108.208L104.111 17.4646H104.04V6.5625H100.867V24.0675H104.04V18.501H104.111L108.361 24.0675H112.537L107.597 17.8998L112.3 12.7816ZM65.247 12.4639C63.7959 12.4639 62.7268 13.087 61.7173 14.0161H61.6579V6.5625H58.4852V24.0675H61.5194V22.4722H61.5669C62.2823 23.6247 63.7037 24.3853 65.178 24.3853C68.4534 24.3853 70.9363 21.8594 70.9363 18.3793C70.9363 14.9517 68.4826 12.4639 65.247 12.4639ZM64.6233 21.7228C62.7092 21.7228 61.5655 20.0458 61.5655 18.4245C61.5655 16.8165 62.7345 15.0809 64.6233 15.0809C66.6766 15.0809 67.698 16.7907 67.698 18.3793C67.698 20.0408 66.5854 21.7228 64.6233 21.7228ZM57.2914 12.7816H53.1992L49.1023 17.4646H49.0318V6.5625H45.8588V24.0675H49.0318V18.501H49.1025L53.3527 24.0675H57.5284L52.5886 17.8998L57.2914 12.7816ZM92.5716 12.4639C88.9611 12.4639 86.3408 14.9517 86.3408 18.3793C86.3408 21.9261 89.0194 24.4156 92.5716 24.4156C96.1235 24.4156 98.8022 21.9023 98.8022 18.3793C98.8022 14.9517 96.1818 12.4639 92.5716 12.4639ZM92.5716 21.7228C90.5024 21.7228 89.5598 19.9896 89.5598 18.3793C89.5598 16.7907 90.5024 15.0809 92.5716 15.0809C94.6407 15.0809 95.5832 16.7907 95.5832 18.3793C95.5832 19.9896 94.6407 21.7228 92.5716 21.7228Z"
      fill="white"
   ></path>
   <path
      d="M16.8899 6.75638C16.8899 8.26339 18.0961 9.36536 19.627 9.36536C21.1578 9.36536 22.367 8.26637 22.367 6.75638V3.29858H20.8838V6.58062C20.8838 7.39369 20.3417 7.93872 19.624 7.93872C18.9092 7.93872 18.3642 7.39369 18.3642 6.58062V3.29858H16.881L16.8899 6.75638Z"
      fill="white"
   ></path>
   <path
      d="M26.3341 4.68351H28.1032V9.24028H29.5864V4.68351H31.3555V3.29565H26.3341V4.68351Z"
      fill="white"
   ></path>
   <path
      d="M25.375 3.29565H23.8918V9.24028H25.375V3.29565Z"
      fill="white"
   ></path>
   <path
      d="M10.8976 4.68351H12.6666V9.24028H14.1498V4.68351H15.9189V3.29565H10.8947V4.68351H10.8976Z"
      fill="white"
   ></path>
   <path
      d="M3.11538 3.29565H1.6322V9.24028H3.11538V6.26795V3.29565Z"
      fill="white"
   ></path>
   <path
      d="M10.1174 5.78541C10.1174 4.2784 8.91116 3.17645 7.37734 3.17645C5.84651 3.17645 4.63733 4.27542 4.63733 5.78541V9.24319H6.12051V5.96117C6.12051 5.1481 6.66554 4.60307 7.38032 4.60307C8.09511 4.60307 8.64014 5.1481 8.64014 5.96117V9.24319H10.1233L10.1174 5.78541Z"
      fill="white"
   ></path>
</svg>